<svg viewBox="0 0 512 512" xmlns="http://www.w3.org/2000/svg" fill-rule="evenodd" clip-rule="evenodd" stroke-linejoin="round" stroke-miterlimit="2"><path d="M373.483 305.216l-.192 1.6c-46.912-23.381-51.819-26.496-57.878-17.408-4.202 6.293-16.448 20.565-20.138 24.789-3.734 4.16-7.446 4.48-13.782 1.6-6.4-3.2-26.944-9.92-51.264-31.68-18.944-16.96-31.658-37.76-35.413-44.16-6.251-10.794 6.827-12.33 18.731-34.858 2.133-4.48 1.045-8-.534-11.179-1.6-3.2-14.336-34.56-19.669-47.061-5.12-12.459-10.389-10.88-14.336-10.88-12.288-1.067-21.269-.896-29.184 7.338-34.432 37.846-25.749 76.886 3.712 118.4 57.899 75.776 88.747 89.728 145.152 109.099 15.232 4.843 29.12 4.16 40.107 2.581 12.245-1.941 37.696-15.381 43.008-30.421 5.44-15.04 5.44-27.52 3.84-30.4-1.579-2.88-5.76-4.48-12.16-7.36z" fill="#fcfcfc" fill-rule="nonzero" stroke="#fcfcfc"/><path d="M437.76 73.579C273.728-84.992 2.261 30.016 2.155 253.717c0 44.715 11.712 88.32 34.026 126.827L0 512l135.147-35.243C303.787 567.851 511.915 446.891 512 253.845c0-67.754-26.453-131.52-74.56-179.434l.32-.832zm31.616 179.562c-.128 162.838-178.88 264.534-320.256 181.419l-7.68-4.565-80 20.8 21.44-77.76-5.099-8C-10.197 224.981 90.88 41.941 257.536 41.941c56.619 0 109.76 22.08 149.781 62.08 40 39.659 62.059 92.8 62.059 149.12z" fill="#fcfcfc" fill-rule="nonzero" stroke="#fcfcfc"/></svg>